<?xml version="1.0" standalone="no"?>
<!DOCTYPE svg PUBLIC "-//W3C//DTD SVG 20010904//EN"
 "http://www.w3.org/TR/2001/REC-SVG-20010904/DTD/svg10.dtd">
<svg version="1.0" xmlns="http://www.w3.org/2000/svg"
 width="500.000000pt" height="500.000000pt" viewBox="0 0 500.000000 500.000000"
 preserveAspectRatio="xMidYMid meet">

<g transform="translate(0.000000,500.000000) scale(0.100000,-0.100000)"
fill="#000000" stroke="none">
<path d="M2330 3716 c-313 -66 -554 -334 -590 -659 -13 -113 -4 -184 26 -214
21 -21 32 -23 127 -23 l103 0 39 40 c48 49 94 61 141 35 19 -10 36 -26 39 -36
3 -9 17 -25 31 -34 14 -9 41 -34 61 -56 20 -22 53 -49 73 -59 62 -31 85 -85
66 -152 -7 -25 -6 -28 18 -28 28 0 66 31 66 55 0 12 4 13 25 3 32 -14 71 4 79
37 5 21 9 22 36 12 26 -10 32 -8 55 13 14 13 25 30 25 37 0 10 5 11 19 3 27
-14 47 -13 65 6 31 30 19 65 -52 154 -71 89 -259 319 -272 333 -4 5 -53 -14
-107 -42 -113 -58 -165 -65 -220 -31 -33 20 -46 56 -41 115 l3 30 -97 3 c-54
1 -98 5 -98 8 0 11 37 63 87 120 63 74 154 135 254 170 63 23 91 27 194 28
112 1 126 -1 210 -32 50 -18 101 -41 115 -52 24 -18 24 -19 6 -39 -36 -39 -17
-48 119 -56 69 -4 128 -5 131 -2 7 7 -42 158 -68 210 -21 42 -33 45 -63 17
l-22 -21 -81 41 c-44 22 -107 47 -139 56 -79 22 -280 27 -363 10z"/>
<path d="M2394 3354 c-93 -63 -191 -141 -198 -159 -8 -23 22 -45 63 -45 25 0
70 17 144 56 59 30 112 52 118 49 5 -4 79 -91 164 -193 242 -293 218 -267 242
-254 12 7 49 12 82 12 74 0 74 -2 26 -105 -52 -110 -160 -220 -268 -274 -45
-23 -116 -48 -157 -57 -134 -28 -302 -4 -416 61 -77 44 -77 44 -59 71 35 53
22 60 -149 70 -106 7 -108 7 -102 -13 4 -12 15 -52 26 -90 25 -91 48 -143 62
-143 6 0 22 9 34 21 l22 20 73 -45 c120 -73 211 -99 362 -104 137 -4 177 2
292 45 346 130 544 495 469 861 -24 117 -32 122 -175 122 -112 0 -121 2 -215
39 -228 90 -263 101 -317 101 -48 0 -63 -5 -123 -46z"/>
<path d="M2071 2813 c-49 -59 -36 -113 27 -113 10 0 24 -11 30 -25 8 -16 23
-28 43 -32 19 -3 35 -15 41 -29 8 -17 20 -24 38 -24 15 0 36 -11 50 -25 30
-31 56 -29 83 7 17 23 19 31 9 53 -8 17 -20 25 -36 25 -14 0 -30 10 -40 25 -9
14 -27 27 -41 31 -15 4 -25 13 -25 25 0 20 -36 49 -62 49 -12 0 -18 8 -18 23
0 58 -55 63 -99 10z"/>
<path d="M3240 2270 l0 -50 765 0 765 0 0 50 0 50 -765 0 -765 0 0 -50z"/>
<path d="M210 2260 l0 -50 760 0 760 0 0 50 0 50 -760 0 -760 0 0 -50z"/>
<path d="M1890 1734 c-7 -19 -9 -38 -6 -42 4 -3 26 13 49 36 l42 42 -37 0
c-33 0 -38 -3 -48 -36z"/>
<path d="M2112 1757 c-6 -6 -14 -26 -18 -42 -7 -29 -7 -30 13 -12 25 22 36 22
58 -3 26 -29 22 -56 -28 -165 -25 -55 -48 -111 -52 -124 -7 -21 -5 -23 16 -18
13 4 29 7 36 7 6 0 26 30 43 68 l32 67 22 -60 c27 -78 32 -85 61 -85 25 0 45
25 45 56 0 14 -3 15 -12 6 -7 -7 -23 -12 -36 -12 -29 0 -41 28 -78 174 -33
133 -69 183 -102 143z"/>
<path d="M2386 1748 c-9 -12 -16 -31 -16 -41 0 -17 1 -17 16 -3 20 21 37 20
58 -3 27 -30 23 -51 -33 -180 -30 -67 -51 -125 -47 -128 3 -3 20 -2 38 3 28 8
36 18 57 72 14 34 28 62 32 62 4 0 15 -26 24 -57 9 -32 22 -64 27 -70 26 -32
78 -1 78 45 -1 23 -2 25 -11 10 -15 -26 -57 -23 -69 5 -5 12 -26 78 -46 147
-45 157 -72 190 -108 138z"/>
<path d="M2982 1758 c-17 -17 -15 -35 3 -42 12 -4 14 -14 10 -40 -4 -20 -2
-43 6 -57 9 -17 9 -24 0 -27 -40 -13 -55 -132 -22 -173 16 -21 31 -25 98 -29
l78 -5 0 -30 c0 -29 -2 -30 -47 -33 -40 -3 -48 -6 -48 -23 0 -15 7 -19 35 -19
51 0 75 28 75 88 0 72 -15 85 -96 90 -104 6 -130 40 -78 101 22 27 33 31 73
31 52 0 89 19 76 40 -7 12 -50 10 -102 -6 -26 -7 -38 13 -29 49 4 17 18 27 53
38 36 11 48 19 48 34 0 29 -28 29 -63 0 -39 -32 -56 -32 -50 0 6 27 -1 32 -20
13z"/>
<path d="M1045 1704 c-81 -183 -136 -294 -148 -294 -4 0 -5 -4 -2 -10 3 -5 25
-10 48 -10 39 1 41 2 23 15 -17 13 -18 20 -10 52 l9 38 67 3 c66 3 67 3 83
-29 10 -18 14 -41 11 -55 -6 -23 -5 -24 53 -24 56 0 84 11 62 25 -11 6 -38 63
-108 225 -26 58 -50 109 -54 114 -5 5 -20 -16 -34 -50z m24 -123 c11 -27 21
-52 21 -55 0 -3 -22 -6 -50 -6 -27 0 -50 4 -50 10 0 15 43 100 51 100 3 0 16
-22 28 -49z"/>
<path d="M3299 1733 c-5 -16 -12 -34 -14 -40 -8 -23 12 -14 56 27 l44 39 -38
1 c-32 0 -39 -4 -48 -27z"/>
<path d="M1285 1643 c-46 -10 -48 -12 -34 -29 8 -9 34 -61 59 -115 25 -53 50
-98 55 -100 15 -3 93 152 101 199 5 34 3 43 -11 48 -9 4 -23 0 -32 -9 -13 -12
-13 -21 -3 -51 9 -28 9 -43 -1 -71 -7 -19 -15 -35 -19 -35 -5 1 -22 36 -59
123 -11 26 -24 46 -28 46 -4 -1 -17 -3 -28 -6z"/>
<path d="M1615 1643 c-75 -4 -88 -11 -111 -55 -15 -28 -14 -29 5 -19 11 6 34
11 52 11 l32 0 -7 -69 c-8 -89 3 -121 42 -121 32 0 67 31 59 52 -4 10 -6 10
-6 1 -1 -18 -28 -16 -35 3 -8 20 -8 98 0 118 4 11 19 16 46 16 38 0 39 1 36
33 -3 36 -2 36 -113 30z"/>
<path d="M1832 1634 c-55 -39 -72 -159 -29 -209 30 -35 104 -46 143 -20 24 16
27 16 44 0 21 -19 50 -14 50 9 0 9 -7 12 -20 9 -32 -8 -34 20 -11 119 23 98
20 108 -25 108 -15 0 -24 -8 -28 -26 l-7 -25 -30 25 c-35 30 -56 32 -87 10z
m77 -20 c24 -31 27 -87 8 -151 -16 -55 -31 -70 -52 -53 -29 24 -16 230 16 230
4 0 17 -12 28 -26z"/>
<path d="M2696 1625 c-32 -30 -46 -64 -46 -115 0 -55 15 -87 49 -105 39 -19
84 -19 123 1 28 15 32 15 40 0 19 -34 59 -5 57 41 0 15 -2 14 -9 -4 -10 -25
-38 -31 -46 -10 -2 7 4 51 16 98 26 110 26 109 -15 109 -27 0 -35 -4 -35 -18
0 -32 -11 -32 -37 -1 -30 36 -61 37 -97 4z m104 -36 c12 -28 11 -42 -6 -108
-21 -85 -45 -105 -65 -54 -14 38 -8 175 10 196 18 22 44 8 61 -34z"/>
<path d="M3693 1643 c-69 -4 -74 -6 -98 -37 -26 -34 -35 -60 -13 -38 7 7 29
12 49 12 l37 0 -5 -80 c-6 -87 3 -110 41 -110 29 0 66 27 66 47 0 15 -2 14
-13 -2 -24 -32 -37 -8 -37 70 l0 74 43 3 c39 3 42 5 42 33 0 34 2 33 -112 28z"/>
<path d="M3890 1612 c-35 -35 -40 -45 -40 -87 0 -91 39 -135 121 -135 33 0 48
7 75 34 31 31 34 40 34 90 0 50 -4 61 -33 92 -24 26 -43 37 -74 41 -40 5 -46
3 -83 -35z m111 -19 c15 -45 5 -161 -15 -181 -39 -39 -70 22 -62 122 8 104 51
137 77 59z"/>
<path d="M3250 1627 c-18 -9 -26 -22 -28 -45 -3 -28 1 -34 30 -46 29 -13 31
-15 13 -22 -35 -13 -55 -36 -55 -66 0 -24 6 -32 35 -44 70 -29 169 -11 163 30
-4 28 -48 36 -48 9 0 -32 -16 -46 -43 -39 -53 13 -42 101 15 113 l33 7 -35 6
c-31 4 -35 9 -38 38 -6 57 39 86 58 37 6 -15 17 -25 29 -25 31 0 37 21 11 42
-26 21 -102 24 -140 5z"/>
</g>
</svg>
