<?xml version="1.0" standalone="no"?>
<!DOCTYPE svg PUBLIC "-//W3C//DTD SVG 20010904//EN"
 "http://www.w3.org/TR/2001/REC-SVG-20010904/DTD/svg10.dtd">
<svg version="1.0" xmlns="http://www.w3.org/2000/svg"
 width="1080.000000pt" height="1080.000000pt" viewBox="0 0 1080.000000 1080.000000"
 preserveAspectRatio="xMidYMid meet">

<g transform="translate(0.000000,1080.000000) scale(0.100000,-0.100000)"
fill="#000000" stroke="none">
<path d="M5180 7660 c-511 -91 -914 -481 -1025 -995 -21 -97 -30 -304 -17
-389 9 -56 17 -76 42 -100 l30 -31 188 -3 187 -3 34 44 c87 116 203 138 296
55 19 -16 38 -40 41 -53 3 -12 20 -29 38 -38 18 -8 44 -29 57 -47 46 -60 140
-141 185 -159 88 -35 128 -143 89 -238 -18 -42 -10 -53 42 -53 42 0 90 41 98
84 l7 33 38 -19 c24 -12 47 -17 63 -12 39 9 77 52 77 85 0 32 6 35 34 14 57
-43 156 10 156 84 0 20 0 20 36 -1 31 -18 40 -19 74 -9 46 14 70 47 70 98 0
36 -22 66 -286 388 -157 193 -292 356 -299 364 -11 11 -36 0 -155 -65 -157
-85 -222 -108 -290 -98 -134 18 -204 113 -166 224 8 24 13 47 10 52 -3 4 -79
8 -170 8 -90 0 -164 2 -164 5 0 18 47 93 99 157 193 240 451 372 752 386 141
6 252 -9 374 -49 85 -29 228 -99 240 -120 4 -5 -6 -24 -20 -43 -33 -44 -30
-77 8 -87 15 -4 116 -9 225 -11 l197 -3 3 24 c5 31 -136 398 -156 406 -24 9
-46 -3 -70 -40 -12 -19 -27 -35 -32 -35 -6 0 -41 17 -78 38 -270 152 -566 204
-862 152z"/>
<path d="M5355 7110 c-46 -15 -104 -53 -249 -162 -104 -78 -193 -153 -199
-165 -14 -31 5 -70 40 -84 16 -6 55 -9 88 -7 54 3 77 13 228 97 130 73 172 92
186 85 10 -5 159 -180 331 -389 172 -209 314 -382 316 -384 1 -2 18 6 37 18
29 18 50 21 141 21 l108 0 -7 -32 c-10 -49 -87 -207 -136 -279 -55 -82 -176
-203 -258 -258 -89 -60 -230 -125 -331 -153 -73 -19 -109 -23 -250 -23 -141 0
-178 4 -250 23 -111 30 -220 77 -302 132 l-67 44 20 25 c42 55 49 69 43 85 -8
21 -14 22 -243 46 -201 21 -221 19 -221 -19 0 -9 28 -104 63 -211 56 -176 65
-195 86 -198 18 -3 33 7 60 38 l36 42 70 -47 c134 -90 288 -155 455 -191 118
-26 381 -26 500 -1 527 114 923 528 1006 1055 35 226 -6 560 -77 628 l-30 29
-202 6 -202 5 -302 117 c-343 132 -385 141 -488 107z"/>
<path d="M4754 6187 c-21 -12 -67 -63 -97 -107 -43 -63 5 -146 83 -144 33 1
40 -2 40 -18 0 -11 16 -36 35 -55 31 -31 40 -35 70 -30 30 5 35 3 35 -14 0
-11 14 -34 30 -51 26 -25 37 -29 70 -26 22 2 40 0 40 -3 0 -4 12 -21 26 -38
58 -70 164 -13 164 87 0 41 -52 85 -92 80 -21 -4 -29 0 -34 16 -12 41 -45 66
-86 66 -37 0 -38 1 -38 38 0 52 -32 82 -88 82 l-41 0 6 35 c5 29 1 39 -25 65
-32 32 -63 37 -98 17z"/>
<path d="M6660 5225 l0 -85 1285 0 1285 0 0 85 0 85 -1285 0 -1285 0 0 -85z"/>
<path d="M1570 5205 l0 -85 1285 0 1285 0 0 85 0 85 -1285 0 -1285 0 0 -85z"/>
<path d="M6260 4382 c-53 -17 -65 -69 -24 -101 24 -19 25 -23 15 -52 -17 -48
-13 -87 9 -109 l20 -20 -36 -37 c-46 -46 -64 -89 -64 -156 0 -70 33 -136 80
-160 30 -16 50 -18 136 -13 89 5 103 4 118 -12 22 -25 20 -65 -4 -87 -16 -15
-30 -17 -76 -11 -61 7 -84 -3 -84 -35 0 -47 88 -62 147 -24 48 32 64 73 61
152 -5 114 -46 143 -198 143 -83 0 -93 2 -115 25 -42 41 -32 99 28 163 30 31
33 32 93 26 72 -8 129 8 145 39 10 17 8 24 -12 40 -28 23 -80 18 -147 -15 -41
-19 -44 -19 -62 -3 -24 21 -25 55 -5 94 11 23 23 29 62 35 86 11 146 67 110
103 -23 23 -80 6 -132 -39 -24 -22 -49 -37 -55 -33 -15 9 -12 46 6 66 16 18 8
29 -16 21z"/>
<path d="M3011 4353 c-8 -16 -63 -138 -123 -273 -112 -250 -143 -304 -178
-315 -47 -15 -13 -25 85 -25 63 0 105 4 105 10 0 6 -10 10 -23 10 -24 0 -67
25 -67 40 0 5 9 34 21 65 l20 55 110 0 110 0 25 -55 c33 -72 30 -99 -13 -103
-18 -2 -33 -7 -33 -13 0 -5 63 -9 150 -9 139 0 182 8 130 25 -31 10 -56 57
-180 340 -62 143 -116 263 -120 268 -4 4 -12 -5 -19 -20z m2 -295 c21 -47 37
-89 37 -92 0 -9 -170 -7 -170 2 -1 18 84 192 90 185 4 -4 23 -47 43 -95z"/>
<path d="M4780 4367 c-18 -9 -31 -29 -44 -70 -10 -32 -16 -60 -14 -63 3 -3 19
9 36 26 33 32 51 36 84 19 21 -12 48 -66 48 -99 0 -12 -43 -113 -95 -226 -52
-113 -95 -208 -95 -210 0 -3 30 -4 67 -2 l66 3 51 118 c28 64 53 117 56 117 3
0 18 -48 34 -106 16 -59 37 -115 47 -125 23 -23 67 -24 96 -4 32 23 59 135 33
135 -5 0 -10 -6 -10 -13 0 -42 -83 -63 -114 -28 -9 10 -41 114 -72 237 -59
231 -71 264 -106 288 -27 19 -35 19 -68 3z"/>
<path d="M5253 4370 c-26 -10 -48 -50 -57 -102 -7 -39 8 -54 19 -19 7 24 57
45 84 36 23 -7 61 -72 61 -104 0 -10 -43 -112 -95 -225 -52 -114 -95 -209 -95
-212 0 -3 30 -4 66 -2 l66 3 51 118 c28 64 53 117 56 117 4 0 17 -42 30 -92
13 -51 30 -105 37 -120 26 -50 107 -48 131 3 19 38 28 109 14 109 -6 0 -11 -6
-11 -13 0 -42 -83 -63 -113 -29 -9 10 -42 115 -72 233 -65 250 -70 263 -103
289 -27 22 -36 23 -69 10z"/>
<path d="M6773 4353 c-3 -10 -14 -40 -25 -66 -22 -59 -23 -67 0 -67 16 0 152
127 152 143 0 4 -27 7 -60 7 -49 0 -62 -3 -67 -17z"/>
<path d="M3363 4162 c-40 -8 -73 -18 -73 -23 0 -5 7 -9 15 -9 17 0 37 -38 130
-247 37 -84 73 -153 79 -153 20 1 178 320 183 371 5 43 3 49 -22 65 -25 16
-30 16 -54 3 -32 -18 -37 -48 -17 -100 22 -53 19 -86 -9 -139 l-23 -45 -42 90
c-23 50 -51 114 -62 142 -10 29 -22 54 -26 56 -4 2 -40 -3 -79 -11z"/>
<path d="M4335 4173 c-39 -10 -84 -54 -111 -109 -47 -97 -32 -227 33 -286 69
-63 201 -62 257 1 22 24 36 27 36 7 0 -8 8 -24 18 -36 39 -48 92 0 92 83 0 33
-15 27 -22 -7 -1 -10 -11 -24 -21 -30 -15 -9 -22 -7 -38 13 -13 16 -18 32 -14
45 12 42 65 287 65 301 0 12 -14 15 -60 15 l-59 0 -11 -41 -11 -40 -37 40
c-37 41 -74 55 -117 44z m89 -48 c40 -43 51 -95 36 -177 -26 -146 -58 -207
-97 -182 -26 16 -35 76 -31 210 5 163 35 211 92 149z"/>
<path d="M5785 4167 c-111 -50 -159 -236 -91 -352 57 -97 207 -114 293 -33 22
20 23 20 29 2 19 -52 58 -68 87 -36 21 23 35 112 18 112 -6 0 -11 -10 -11 -23
0 -46 -50 -64 -71 -26 -6 12 -9 31 -6 43 22 98 67 308 67 312 0 3 -28 4 -62 2
l-62 -3 -11 -45 -11 -45 -16 30 c-34 64 -94 88 -153 62z m102 -39 c12 -13 29
-42 39 -66 16 -42 16 -47 -6 -149 -13 -57 -32 -116 -42 -129 -25 -32 -56 -31
-68 2 -14 36 -13 300 1 327 23 43 46 47 76 15z"/>
<path d="M7815 4166 c-49 -18 -111 -85 -125 -135 -24 -87 2 -205 56 -253 72
-64 200 -62 273 5 96 88 77 298 -33 362 -54 32 -119 40 -171 21z m104 -35 c25
-25 36 -123 26 -239 -7 -96 -23 -132 -58 -132 -61 0 -82 68 -71 238 5 80 11
108 26 127 23 30 51 32 77 6z"/>
<path d="M3826 4160 c-15 -5 -36 -16 -45 -24 -24 -22 -66 -114 -56 -123 4 -5
10 -2 12 5 8 21 60 42 106 42 24 0 46 -2 48 -5 3 -2 -2 -54 -10 -115 -13 -97
-13 -116 0 -153 17 -50 49 -66 105 -51 45 11 72 45 81 99 6 41 -11 41 -19 1
-1 -10 -11 -24 -21 -30 -33 -20 -47 16 -47 118 0 138 -1 136 81 136 l69 0 0
55 0 55 -137 -1 c-76 0 -151 -5 -167 -9z"/>
<path d="M6730 4161 c-71 -15 -110 -52 -110 -104 0 -35 39 -75 80 -83 40 -8
38 -20 -4 -28 -89 -17 -126 -110 -66 -166 77 -71 286 -63 321 13 14 32 -2 64
-36 73 -34 8 -55 -11 -55 -50 0 -39 -15 -56 -49 -56 -47 0 -71 34 -71 98 0 58
29 90 85 94 65 4 60 22 -7 28 -31 3 -60 9 -65 13 -4 5 -8 31 -8 59 0 41 4 53
24 69 14 11 36 19 50 17 21 -2 27 -9 29 -33 5 -40 19 -55 52 -55 59 0 65 66 8
96 -36 19 -127 26 -178 15z"/>
<path d="M7313 4159 c-18 -5 -43 -24 -56 -42 -47 -63 -63 -142 -18 -86 16 20
28 24 83 24 39 0 62 -4 61 -11 -12 -70 -25 -226 -19 -247 15 -61 74 -84 135
-52 32 16 64 75 59 108 -3 19 -6 17 -20 -15 -10 -21 -23 -38 -31 -38 -31 0
-38 27 -35 141 l3 114 73 3 72 3 0 54 0 55 -137 -1 c-76 0 -152 -5 -170 -10z"/>
</g>
</svg>
